<svg id="visual" viewBox="0 0 900 400" width="900" height="400" xmlns="http://www.w3.org/2000/svg" xmlns:xlink="http://www.w3.org/1999/xlink" version="1.1"><g stroke-width="1" stroke-linejoin="bevel"><path d="M482 207L410 206L410 298Z" fill="#0c2435" stroke="#0c2435"></path><path d="M410 298L518 316L482 207Z" fill="#0c2435" stroke="#0c2435"></path><path d="M518 316L589 300L482 207Z" fill="#112e42" stroke="#112e42"></path><path d="M410 298L485 400L518 316Z" fill="#112e42" stroke="#112e42"></path><path d="M518 316L625 400L589 300Z" fill="#246688" stroke="#246688"></path><path d="M412 400L485 400L410 298Z" fill="#19435d" stroke="#19435d"></path><path d="M370 110L297 196L410 206Z" fill="#112e42" stroke="#112e42"></path><path d="M410 206L297 196L410 298Z" fill="#297ea6" stroke="#297ea6"></path><path d="M410 298L271 400L412 400Z" fill="#205a7a" stroke="#205a7a"></path><path d="M482 207L370 110L410 206Z" fill="#0c2435" stroke="#0c2435"></path><path d="M589 300L585 165L482 207Z" fill="#081a28" stroke="#081a28"></path><path d="M482 207L521 85L370 110Z" fill="#112e42" stroke="#112e42"></path><path d="M297 196L264 275L410 298Z" fill="#112e42" stroke="#112e42"></path><path d="M585 165L521 85L482 207Z" fill="#112e42" stroke="#112e42"></path><path d="M625 400L666 279L589 300Z" fill="#081a28" stroke="#081a28"></path><path d="M589 300L666 279L585 165Z" fill="#0c2435" stroke="#0c2435"></path><path d="M585 165L596 87L521 85Z" fill="#246688" stroke="#246688"></path><path d="M701 206L596 87L585 165Z" fill="#112e42" stroke="#112e42"></path><path d="M264 275L271 400L410 298Z" fill="#081a28" stroke="#081a28"></path><path d="M286 61L224 194L297 196Z" fill="#00101c" stroke="#00101c"></path><path d="M297 196L224 194L264 275Z" fill="#205a7a" stroke="#205a7a"></path><path d="M264 275L229 400L271 400Z" fill="#1d4e6b" stroke="#1d4e6b"></path><path d="M485 400L625 400L518 316Z" fill="#0c2435" stroke="#0c2435"></path><path d="M398 0L286 61L370 110Z" fill="#297ea6" stroke="#297ea6"></path><path d="M370 110L286 61L297 196Z" fill="#0c2435" stroke="#0c2435"></path><path d="M482 0L370 110L521 85Z" fill="#15384f" stroke="#15384f"></path><path d="M616 0L482 0L521 85Z" fill="#246688" stroke="#246688"></path><path d="M482 0L398 0L370 110Z" fill="#00101c" stroke="#00101c"></path><path d="M778 312L701 206L666 279Z" fill="#246688" stroke="#246688"></path><path d="M666 279L701 206L585 165Z" fill="#00101c" stroke="#00101c"></path><path d="M168 281L229 400L264 275Z" fill="#081a28" stroke="#081a28"></path><path d="M224 194L168 281L264 275Z" fill="#19435d" stroke="#19435d"></path><path d="M121 213L168 281L224 194Z" fill="#297ea6" stroke="#297ea6"></path><path d="M625 400L692 400L666 279Z" fill="#246688" stroke="#246688"></path><path d="M596 87L616 0L521 85Z" fill="#205a7a" stroke="#205a7a"></path><path d="M703 0L616 0L596 87Z" fill="#205a7a" stroke="#205a7a"></path><path d="M398 0L261 0L286 61Z" fill="#112e42" stroke="#112e42"></path><path d="M286 61L162 80L224 194Z" fill="#297ea6" stroke="#297ea6"></path><path d="M162 80L121 213L224 194Z" fill="#277297" stroke="#277297"></path><path d="M168 281L84 400L229 400Z" fill="#297ea6" stroke="#297ea6"></path><path d="M836 179L731 85L701 206Z" fill="#0c2435" stroke="#0c2435"></path><path d="M701 206L731 85L596 87Z" fill="#19435d" stroke="#19435d"></path><path d="M197 0L162 80L286 61Z" fill="#205a7a" stroke="#205a7a"></path><path d="M692 400L778 312L666 279Z" fill="#112e42" stroke="#112e42"></path><path d="M121 213L100 289L168 281Z" fill="#1d4e6b" stroke="#1d4e6b"></path><path d="M261 0L197 0L286 61Z" fill="#205a7a" stroke="#205a7a"></path><path d="M731 85L703 0L596 87Z" fill="#081a28" stroke="#081a28"></path><path d="M692 400L784 400L778 312Z" fill="#205a7a" stroke="#205a7a"></path><path d="M100 289L84 400L168 281Z" fill="#1d4e6b" stroke="#1d4e6b"></path><path d="M778 312L836 179L701 206Z" fill="#0c2435" stroke="#0c2435"></path><path d="M731 85L800 0L703 0Z" fill="#00101c" stroke="#00101c"></path><path d="M900 218L836 179L900 294Z" fill="#205a7a" stroke="#205a7a"></path><path d="M162 80L78 100L121 213Z" fill="#0c2435" stroke="#0c2435"></path><path d="M121 213L0 267L100 289Z" fill="#277297" stroke="#277297"></path><path d="M100 289L0 400L84 400Z" fill="#1d4e6b" stroke="#1d4e6b"></path><path d="M125 0L78 100L162 80Z" fill="#112e42" stroke="#112e42"></path><path d="M836 179L824 102L731 85Z" fill="#277297" stroke="#277297"></path><path d="M197 0L125 0L162 80Z" fill="#205a7a" stroke="#205a7a"></path><path d="M824 102L800 0L731 85Z" fill="#1d4e6b" stroke="#1d4e6b"></path><path d="M0 202L0 267L121 213Z" fill="#297ea6" stroke="#297ea6"></path><path d="M0 122L0 202L78 100Z" fill="#205a7a" stroke="#205a7a"></path><path d="M78 100L0 202L121 213Z" fill="#00101c" stroke="#00101c"></path><path d="M836 179L900 138L824 102Z" fill="#00101c" stroke="#00101c"></path><path d="M824 102L900 0L800 0Z" fill="#081a28" stroke="#081a28"></path><path d="M900 294L836 179L778 312Z" fill="#246688" stroke="#246688"></path><path d="M900 400L900 294L778 312Z" fill="#205a7a" stroke="#205a7a"></path><path d="M0 0L0 122L78 100Z" fill="#297ea6" stroke="#297ea6"></path><path d="M900 218L900 138L836 179Z" fill="#112e42" stroke="#112e42"></path><path d="M0 267L0 400L100 289Z" fill="#277297" stroke="#277297"></path><path d="M784 400L900 400L778 312Z" fill="#112e42" stroke="#112e42"></path><path d="M125 0L0 0L78 100Z" fill="#0c2435" stroke="#0c2435"></path><path d="M900 138L900 0L824 102Z" fill="#277297" stroke="#277297"></path></g></svg>